<?xml version="1.0" encoding="iso-8859-1"?>
<!-- Generator: Adobe Illustrator 19.0.0, SVG Export Plug-In . SVG Version: 6.00 Build 0)  -->
<svg version="1.1" id="Capa_1" xmlns="http://www.w3.org/2000/svg" xmlns:xlink="http://www.w3.org/1999/xlink" x="0px" y="0px"
	 viewBox="0 0 512 512" style="enable-background:new 0 0 512 512;" xml:space="preserve">
<g>
	<g>
		<path d="M510.082,7.663C507.428,2.931,502.426,0,497,0H15C9.574,0,4.57,2.931,1.916,7.663c-2.652,4.732-2.545,10.529,0.285,15.158
			l174.531,285.6V448.8c0,6.253,3.879,11.85,9.732,14.045l128.533,48.2c1.707,0.641,3.492,0.955,5.266,0.955
			c3.014,0,6-0.907,8.545-2.671c4.045-2.803,6.457-7.409,6.457-12.329V308.421L509.799,22.822
			C512.629,18.192,512.736,12.396,510.082,7.663z"/>
	</g>
</g>
<g>
</g>
<g>
</g>
<g>
</g>
<g>
</g>
<g>
</g>
<g>
</g>
<g>
</g>
<g>
</g>
<g>
</g>
<g>
</g>
<g>
</g>
<g>
</g>
<g>
</g>
<g>
</g>
<g>
</g>
</svg>
