<svg id="Layer_1" enable-background="new 0 0 64 64" height="512" viewBox="0 0 64 64" width="512" xmlns="http://www.w3.org/2000/svg"><g><path d="m13.8 33.3c0 10.1 8.2 18.2 18.2 18.2s18.2-8.2 18.2-18.2c0-10.1-8.1-18.3-18.2-18.3s-18.2 8.2-18.2 18.3zm16.2-1c0-3.2 0-6.4 0-9.7 0-1.1.9-2 2-2s2 1 2 2v1.4 7.7h5.8c1.1 0 2 .9 2 2s-1 2-2 2c-2.6 0-5.2 0-7.8 0-1.1 0-2-.9-2-2 0-.5 0-.9 0-1.4z"/><path d="m56.5 25.5c-3-9.5-11.4-16.3-21.2-17.7.1-.3.2-.6.2-.8 0-.8-.5-1.5-1.1-1.8-.8-.4-1.6-.2-2.3.4s-1.4 1.2-2.1 1.8c-.3.3-.7.5-.9.8s-.3.7-.3 1.1c0 .9.6 1.4 1.1 2.1.6.7 1.2 1.5 1.9 2.2 1.1 1.3 3.4.3 3.4-1.3v-.1c0-.1 0-.2 0-.3 7.1 1.1 13.4 5.6 16.6 12.2 3.6 7.5 2.4 16.9-3 23.2-5.4 6.4-14.1 9.2-22.2 7.1-8-2.1-14.1-8.7-15.7-16.7-2.1-10 3.5-20 12.6-24.2 1-.4 1.2-1.9.7-2.7-.6-1-1.7-1.2-2.7-.7-9.5 4.3-15.6 14.3-15 24.8.6 9.9 6.8 18.6 15.9 22.4 9.2 3.8 20 1.8 27.2-4.9 7.1-6.9 9.9-17.5 6.9-26.9z"/></g></svg>