<svg id="Layer_2" height="512" viewBox="0 0 28 28" width="512" xmlns="http://www.w3.org/2000/svg" data-name="Layer 2"><path d="m25.287 8.025a2.431 2.431 0 0 0 0-3.44l-1.872-1.873a2.437 2.437 0 0 0 -3.44 0l-1.2 1.2 5.313 5.312z"/><path d="m9 14.1v3.9a1 1 0 0 0 1 1h3.9a1 1 0 0 0 .707-.293l8.065-8.065-5.315-5.312-8.064 8.07a1 1 0 0 0 -.293.7z"/><path d="m26 13a1 1 0 0 0 -1 1v7.853a3.151 3.151 0 0 1 -3.147 3.147h-15.706a3.151 3.151 0 0 1 -3.147-3.147v-15.706a3.151 3.151 0 0 1 3.147-3.147h7.853a1 1 0 0 0 0-2h-7.853a5.154 5.154 0 0 0 -5.147 5.147v15.706a5.154 5.154 0 0 0 5.147 5.147h15.706a5.154 5.154 0 0 0 5.147-5.147v-7.853a1 1 0 0 0 -1-1z"/></svg>